<?xml version="1.0" encoding="UTF-8"?>
<!-- Created with Inkscape (http://www.inkscape.org/) -->
<svg width="64.83mm" height="42.67mm" version="1.1" viewBox="0 0 245.03 161.27" xmlns="http://www.w3.org/2000/svg" xmlns:xlink="http://www.w3.org/1999/xlink">
 <defs>
  <clipPath id="clipPath2">
   <path transform="translate(-459.25 -161.1)" d="m0 0h992.13v283.46h-992.13z"/>
  </clipPath>
 </defs>
 <g>
  <g>
   <path transform="matrix(1.3333 0 0 -1.3333 517.84 95.096)" d="m-253.1 9.806c-6.559-2.227-32.94-22.105-32.94-22.105l-2.378 5.253c0 15.997 17.624 30.609 17.624 47.331 0 24.385-25.696 31.037-25.696 31.037h-2e-3s-25.696-6.652-25.696-31.037c0-16.722 17.624-31.334 17.624-47.331l-2.378-5.253s-26.382 19.878-32.94 22.105c-32.865 11.157-48.498-10.457-48.498-22.564 0-21.992 17.713-22.703 17.713-22.703l5.568 13.538c5.012 2.795 11.319 6.903 27.975 6.903 11.844 0 29.152-5.737 29.152-5.737l1.22-3.197s-12.844 0.137-12.844-6.74c0-14.4 23.104-18.945 23.104-18.945h2e-3s23.104 4.545 23.104 18.945c0 6.877-12.844 6.74-12.844 6.74l1.22 3.197s17.308 5.737 29.152 5.737c16.656 0 22.963-4.108 27.975-6.903l5.568-13.538s17.713 0.711 17.713 22.703c0 12.107-15.633 33.721-48.498 22.564" clip-path="url(#clipPath2)" fill="#f08100"/>
  </g>
 </g>
</svg>
