<?xml version="1.0" encoding="UTF-8"?>
<!-- Created with Inkscape (http://www.inkscape.org/) -->
<svg width="1322.8" height="377.95" version="1.1" viewBox="0 0 1322.8 377.95" xmlns="http://www.w3.org/2000/svg" xmlns:xlink="http://www.w3.org/1999/xlink">
 <defs>
  <clipPath id="clipPath2">
   <path transform="translate(-459.25 -161.1)" d="m0 0h992.13v283.46h-992.13z"/>
  </clipPath>
 </defs>
 <g>
  <g>
   <path transform="matrix(1.3333 0 0 -1.3333 612.33 163.16)" d="m0 0c0-7.747-5.097-12.822-11.267-16.829l-19.314 10.952c-6.17-2.671-12.072-6.945-18.778-14.157v-64.644c0-11.753 3.755-14.691 18.778-14.691h4.024v-10.685h-64.65v10.685c15.558 0 19.582 2.938 19.582 17.363v68.116l-18.241 3.739v8.014l31.922 14.425h8.585v-22.973c16.9 18.699 25.752 23.774 34.873 23.774 7.78 0 14.486-4.808 14.486-13.089m-123.55-87.349v99.637h-8.585l-31.922-14.425v-8.014l18.241-3.739v-68.116c0-14.425-4.024-17.363-19.582-17.363v-10.685h60.626v10.685c-15.023 0-18.778 2.404-18.778 12.02m167.73 130.09c8.316 0 14.754 5.876 14.754 14.157s-6.438 14.425-14.754 14.425-14.486-6.144-14.486-14.425 6.17-14.157 14.486-14.157m10.462-130.09v99.637h-8.584l-31.923-14.425v-8.014l18.242-3.739v-68.116c0-14.425-4.024-17.363-19.583-17.363v-10.685h60.626v10.685c-15.022 0-18.778 2.404-18.778 12.02m-188.66 130.09c8.316 0 14.754 5.876 14.754 14.157s-6.438 14.425-14.754 14.425-14.486-6.144-14.486-14.425 6.17-14.157 14.486-14.157m549.08-32.589v-10.151c9.657 0 14.218-2.671 14.218-8.548 0-2.938-1.073-6.144-2.683-10.418l-24.68-60.636-25.216 58.767c-2.146 4.808-3.219 8.814-3.219 11.753 0 6.411 4.56 9.082 13.95 9.082v10.151h-55.798v-10.685c9.121 0 14.754-3.473 17.973-11.219l42.385-99.37h10.998l40.507 98.034c3.756 8.815 9.389 12.555 18.51 12.555v10.685zm-82.46-59.569c0-35.527-26.021-63.575-58.48-63.575-32.46 0-59.017 26.178-59.017 63.575 0 35.528 26.289 63.576 59.017 63.576 31.922 0 58.48-25.911 58.48-63.576m-24.412-5.075c0 34.726-14.754 55.562-36.751 55.562-19.583 0-31.654-16.829-31.654-45.411 0-34.726 14.754-55.562 37.287-55.562 19.315 0 31.118 17.363 31.118 45.411m-105.5 11.753c0-37.664-24.411-70.253-67.601-70.253-11.534 0-28.971 2.404-43.725 7.747v152.79l-15.899 2.878v11.29l31.726 12.544h6.438v-82.541c13.681 16.295 24.411 22.706 39.97 22.706 29.24 0 49.091-22.973 49.091-57.165m-24.411-8.28c0 28.315-13.145 47.28-36.215 47.28-11.535 0-20.387-4.808-28.435-14.157v-55.027c0-19.5 14.754-28.315 28.704-28.315 21.46 0 35.946 20.568 35.946 50.219m-431.38 60.826c-6.559-2.227-32.94-22.105-32.94-22.105l-2.378 5.253c0 15.997 17.624 30.609 17.624 47.331 0 24.385-25.696 31.037-25.696 31.037h-2e-3s-25.696-6.652-25.696-31.037c0-16.722 17.624-31.334 17.624-47.331l-2.378-5.253s-26.382 19.878-32.94 22.105c-32.865 11.157-48.498-10.457-48.498-22.564 0-21.992 17.713-22.703 17.713-22.703l5.568 13.538c5.012 2.795 11.319 6.903 27.975 6.903 11.844 0 29.152-5.737 29.152-5.737l1.22-3.197s-12.844 0.137-12.844-6.74c0-14.4 23.104-18.945 23.104-18.945h2e-3s23.104 4.545 23.104 18.945c0 6.877-12.844 6.74-12.844 6.74l1.22 3.197s17.308 5.737 29.152 5.737c16.656 0 22.963-4.108 27.975-6.903l5.568-13.538s17.713 0.711 17.713 22.703c0 12.107-15.633 33.721-48.498 22.564" fill="#F08100"/>
  </g>
 </g>
</svg>
