<?xml version="1.0" encoding="iso-8859-1"?>
<!-- Uploaded to: SVG Repo, www.svgrepo.com, Generator: SVG Repo Mixer Tools -->
<svg height="800px" width="800px" version="1.1" id="Layer_1" xmlns="http://www.w3.org/2000/svg" xmlns:xlink="http://www.w3.org/1999/xlink" 
	 viewBox="0 0 512 512" xml:space="preserve">
<g>
	<path style="fill:#A0BF7C;" d="M226.436,130.867c-17.033-2.219-40.994-8.516-58.411-25.941
		c-29.551-29.551-27.247-77.918-27.136-79.957l0.623-11.349l11.392-0.725c0,0,1.399-0.094,3.883-0.094
		c14.711,0,51.567,2.654,76.134,27.213c13.773,13.764,22.733,33.954,25.916,58.377l4.855,37.282l0.051,0.051L226.436,130.867z"/>
	<path style="fill:#A0BF7C;" d="M258.513,160.034c2.116-23.322,9.532-56.03,32.87-79.377c31.215-31.206,80.213-33.63,94.49-33.63
		c3.021,0,4.719,0.111,4.719,0.111l11.366,0.7l0.674,11.366c0.145,2.543,3.021,62.626-33.536,99.166
		c-22.835,22.835-54.741,30.404-77.483,32.717l-35.789,3.652l-0.503,0.495L258.513,160.034z"/>
</g>
<path style="fill:#919CB0;" d="M119.812,499.2c-9.233,0-16.367-1.971-21.803-6.025c-6.161-4.591-9.557-11.614-9.557-19.78
	c0-24.346,31.676-59.452,61.321-84.19c14.558-12.151,65.246-51.797,106.231-51.797s91.682,39.646,106.24,51.797
	c29.645,24.738,61.321,59.853,61.321,84.19c0,8.166-3.396,15.189-9.557,19.78c-5.444,4.053-12.578,6.025-21.811,6.025H119.812z"/>
<path style="fill:#573A32;" d="M268.804,325.743V204.578c0.145,0.009,0.265,0.094,0.41,0.102c0,0,1.946,0.119,5.385,0.119
	c19.891,0,69.803-3.644,103.535-37.376c40.55-40.542,37.419-106.155,37.265-108.928c-0.717-12.971-11.179-23.364-24.149-24.149
	c0,0-1.946-0.119-5.385-0.119c-19.891,0-69.803,3.644-103.535,37.385c-4.702,4.702-8.755,9.754-12.356,14.993
	c-3.575-17.707-11.332-38.963-28.006-55.637C214.029,3.021,173.086,0,156.787,0c-2.901,0-4.54,0.102-4.54,0.102
	c-12.954,0.802-23.433,11.187-24.149,24.149c-0.316,5.709-2.116,56.73,30.865,89.719c27.486,27.486,67.413,30.839,84.241,30.942
	v180.83C177.643,336.632,75.652,423.91,75.652,473.395c0,12.305,5.222,22.98,14.703,30.046c7.62,5.675,17.536,8.559,29.449,8.559
	h272.384c11.921,0,21.828-2.884,29.457-8.559c9.481-7.066,14.703-17.741,14.703-30.046
	C436.356,423.91,334.366,336.64,268.804,325.743z M300.437,89.711c27.682-27.682,72.021-29.884,85.436-29.884
	c2.543,0,3.977,0.077,3.977,0.077s3.115,56.491-29.807,89.412c-20.565,20.565-50.295,27.042-69.734,29.03l66.893-66.893
	c5.001-5.001,5.001-13.099,0-18.099s-13.099-5.001-18.099,0l-67.84,67.84C273.02,141.833,279.189,110.959,300.437,89.711z
	 M195.759,85.854l32.324,32.324c-15.164-1.98-36.096-7.39-51.012-22.306c-25.847-25.847-23.407-70.212-23.407-70.212
	s1.126-0.06,3.123-0.06c10.539,0,45.346,1.732,67.089,23.467c14.916,14.916,20.292,35.814,22.272,50.978l-32.29-32.29
	c-5.001-5.001-13.099-5.001-18.099,0S190.758,80.853,195.759,85.854z M392.196,486.4c-68.096,0-204.288,0-272.384,0
	c-68.105,0,68.096-136.192,136.192-136.192S460.292,486.4,392.196,486.4z"/>
</svg>