<?xml version="1.0" encoding="UTF-8" standalone="no"?>
<!DOCTYPE svg PUBLIC "-//W3C//DTD SVG 20010904//EN"
              "http://www.w3.org/TR/2001/REC-SVG-20010904/DTD/svg10.dtd">

<svg xmlns="http://www.w3.org/2000/svg"
     width="2.61376in" height="1.81827in"
     viewBox="0 0 575 400">
  <path id="Logo"
        fill="#ee7d00" stroke="none"
        d="M 246.00,249.00
           C 243.51,239.76 238.87,229.66 234.78,221.00
             234.78,221.00 221.74,194.00 221.74,194.00
             211.01,173.20 205.91,165.71 201.00,142.00
             199.97,137.02 197.89,124.73 198.10,120.00
             198.10,120.00 200.59,100.00 200.59,100.00
             205.04,73.45 212.67,57.39 232.00,38.00
             241.70,28.27 250.52,21.65 263.00,15.84
             267.15,13.90 283.62,5.90 287.00,5.74
             290.05,5.60 304.37,12.96 308.00,14.76
             328.78,25.00 340.50,34.98 354.00,54.00
             357.69,59.20 361.50,65.12 363.99,71.00
             369.20,83.32 374.48,108.75 373.96,122.00
             373.59,131.51 369.47,150.93 366.31,160.00
             358.77,181.61 337.00,215.07 326.00,248.00
             331.98,245.66 340.84,237.56 346.00,233.25
             358.98,222.40 370.73,211.61 385.00,202.34
             411.71,185.00 438.20,182.95 469.00,183.00
             478.89,183.02 485.63,184.91 495.00,187.58
             503.02,189.87 517.05,194.83 524.00,199.07
             541.56,209.76 562.04,232.49 566.49,253.00
             569.98,269.06 566.10,291.14 559.37,306.00
             552.09,322.10 544.38,332.54 528.00,340.22
             523.09,342.52 517.49,344.29 512.00,343.90
             496.38,342.81 498.93,330.66 497.10,323.00
             494.84,313.51 493.08,307.81 485.00,301.53
             473.53,292.60 458.14,288.86 444.00,286.87
             434.98,285.60 426.14,283.99 417.00,284.00
             405.06,284.01 385.62,287.95 374.00,291.29
             366.34,293.49 348.06,296.85 343.00,302.00
             362.70,303.79 372.94,329.53 359.96,348.00
             347.88,365.19 324.06,373.08 305.00,380.05
             300.39,381.74 288.34,386.71 284.00,386.61
             280.93,386.54 267.84,381.10 264.00,379.68
             246.25,373.12 222.12,364.41 211.55,348.00
             208.85,343.81 206.30,338.01 206.04,333.00
             205.36,319.51 214.54,303.81 229.00,303.00
             229.00,303.00 229.00,300.00 229.00,300.00
             229.00,300.00 184.00,288.42 184.00,288.42
             175.61,286.57 166.59,285.01 158.00,285.00
             140.69,284.97 118.07,287.46 102.00,294.01
             92.20,298.01 82.26,303.90 77.88,314.00
             76.54,317.09 74.78,323.65 74.30,327.00
             74.30,327.00 73.66,334.00 73.66,334.00
             72.20,341.06 66.68,343.97 60.00,344.48
             42.47,345.83 25.80,329.77 17.60,316.00
             7.84,299.58 0.98,271.79 5.76,253.00
             9.67,237.65 20.77,222.90 32.00,212.04
             43.49,200.93 52.49,197.03 67.00,191.58
             81.74,186.04 97.22,182.82 113.00,183.00
             113.00,183.00 123.00,183.91 123.00,183.91
             145.05,185.52 163.67,188.95 183.00,200.45
             197.53,209.10 210.21,220.32 223.00,231.27
             229.02,236.42 239.31,245.47 246.00,249.00 Z
           M 57.00,328.00
           C 61.06,315.69 60.10,306.24 70.18,295.01
             81.00,282.98 100.50,276.28 116.00,273.20
             132.76,269.87 143.00,268.97 160.00,269.00
             177.92,269.03 198.81,275.25 216.00,280.14
             216.00,280.14 252.00,290.33 252.00,290.33
             253.72,291.15 255.45,292.13 256.89,293.39
             269.20,304.16 253.67,315.51 243.00,318.10
             236.38,319.71 231.54,318.21 228.21,320.17
             225.70,321.65 223.32,326.22 222.67,329.00
             221.16,335.44 227.51,342.41 232.09,346.20
             239.96,352.69 259.95,360.60 270.00,364.32
             273.22,365.51 282.12,369.23 285.00,369.30
             288.02,369.37 299.66,364.69 303.00,363.28
             314.69,358.38 331.44,353.06 340.99,344.70
             347.46,339.03 352.25,332.43 347.59,324.00
             343.10,315.90 338.35,318.76 331.00,317.70
             324.26,316.73 316.47,312.85 312.73,307.00
             307.30,298.50 315.43,291.29 323.00,288.55
             323.00,288.55 351.00,281.00 351.00,281.00
             373.53,274.53 396.33,267.73 420.00,268.00
             427.98,268.10 440.95,269.91 449.00,271.25
             459.48,272.99 470.33,275.25 480.00,279.78
             493.24,285.99 503.80,292.89 509.55,307.00
             511.52,311.85 512.54,316.92 513.76,321.98
             514.25,324.03 514.55,326.19 517.15,326.30
             522.07,326.49 531.63,318.60 534.68,315.00
             546.37,301.13 551.21,281.85 551.00,264.00
             550.85,251.46 544.42,241.32 536.56,232.00
             532.68,227.39 524.85,219.47 520.00,216.04
             507.49,207.20 482.37,199.02 467.00,199.00
             467.00,199.00 453.00,199.00 453.00,199.00
             437.08,199.19 416.00,203.72 402.00,211.31
             382.74,221.74 366.03,238.45 349.00,252.20
             343.63,256.53 329.49,267.89 324.00,270.60
             319.41,272.91 314.44,274.10 310.11,270.60
             304.08,265.65 305.63,259.45 307.42,253.00
             311.15,239.61 316.47,226.62 322.23,214.00
             322.23,214.00 332.30,193.00 332.30,193.00
             332.30,193.00 350.56,156.00 350.56,156.00
             353.55,147.78 357.66,128.65 357.66,120.00
             357.66,108.65 353.68,87.15 348.74,77.00
             343.97,67.18 338.40,60.06 331.16,52.00
             321.53,41.26 311.22,33.82 298.00,28.00
             294.77,26.58 289.35,23.43 286.00,23.84
             283.73,24.12 276.36,27.60 274.00,28.76
             265.23,33.07 258.12,36.61 250.58,43.01
             238.86,52.96 225.91,69.40 220.70,84.00
             218.55,90.02 218.34,93.01 217.20,99.00
             213.38,118.92 213.90,131.41 219.72,151.00
             223.60,164.08 237.50,189.50 244.25,203.00
             252.17,218.85 257.83,232.13 263.33,249.00
             265.36,255.23 268.55,263.04 264.30,268.94
             259.77,275.24 252.93,273.90 247.00,270.65
             239.53,266.55 219.27,249.61 212.00,243.42
             198.62,232.02 181.83,217.37 166.00,209.89
             150.73,202.67 137.44,201.48 121.00,199.83
             115.58,199.29 112.70,198.70 107.00,199.09
             96.32,199.82 86.14,202.13 76.00,205.51
             67.52,208.33 59.26,211.42 52.00,216.76
             37.50,227.42 21.08,247.20 21.00,266.00
             20.90,290.34 31.28,320.67 57.00,328.00 Z" />
</svg>
