<?xml version="1.0" encoding="UTF-8" standalone="no"?>
<!DOCTYPE svg PUBLIC "-//W3C//DTD SVG 20010904//EN"
              "http://www.w3.org/TR/2001/REC-SVG-20010904/DTD/svg10.dtd">

<svg xmlns="http://www.w3.org/2000/svg"
     width="233.934mm" height="74.9301mm"
     viewBox="0 0 2763 885">
  <path id="Iribov"
        fill="#10044f" stroke="none"
        d="M 1673.00,229.00
           C 1673.00,229.00 1774.00,212.73 1774.00,212.73
             1774.00,212.73 1804.00,208.00 1804.00,208.00
             1804.00,208.00 1784.42,278.00 1784.42,278.00
             1784.42,278.00 1749.29,401.00 1749.29,401.00
             1749.29,401.00 1737.29,443.00 1737.29,443.00
             1737.29,443.00 1730.00,470.00 1730.00,470.00
             1753.20,446.80 1778.38,422.72 1810.00,411.69
             1823.83,406.87 1838.42,404.98 1853.00,405.00
             1867.27,405.02 1884.39,409.10 1897.00,415.78
             1906.23,420.67 1915.11,428.19 1922.00,436.01
             1930.66,445.86 1936.11,456.54 1939.98,469.00
             1945.89,488.08 1945.22,501.48 1945.00,521.00
             1944.67,549.03 1932.73,587.02 1920.25,612.00
             1893.88,664.74 1859.19,705.65 1807.00,734.30
             1782.18,747.93 1751.60,758.66 1723.00,759.00
             1689.00,759.39 1656.50,750.30 1627.00,733.42
             1627.00,733.42 1609.00,722.58 1609.00,722.58
             1606.57,721.05 1602.34,718.59 1601.19,715.91
             1599.68,712.36 1605.17,697.39 1606.42,693.00
             1606.42,693.00 1624.14,632.00 1624.14,632.00
             1624.14,632.00 1694.71,389.00 1694.71,389.00
             1694.71,389.00 1723.37,289.00 1723.37,289.00
             1726.28,277.52 1733.29,260.12 1724.66,250.04
             1712.63,235.99 1688.87,241.71 1673.00,243.00
             1673.00,243.00 1673.00,229.00 1673.00,229.00 Z
           M 915.00,247.00
           C 915.30,243.66 916.64,236.03 919.51,234.02
             921.64,232.53 929.16,233.00 932.00,233.00
             932.00,233.00 963.00,233.00 963.00,233.00
             963.00,233.00 1118.00,233.00 1118.00,233.00
             1117.41,235.93 1115.76,244.28 1113.44,245.98
             1111.54,247.37 1106.40,246.99 1104.00,247.00
             1096.26,247.04 1087.18,248.55 1080.00,251.45
             1062.40,258.57 1052.14,270.81 1045.01,288.00
             1033.14,316.63 1018.00,374.73 1008.58,407.00
             1008.58,407.00 955.86,590.00 955.86,590.00
             955.86,590.00 933.12,671.00 933.12,671.00
             930.39,681.39 925.15,699.65 927.53,710.00
             932.40,731.21 960.06,734.04 978.00,735.03
             978.00,735.03 990.00,736.00 990.00,736.00
             989.53,739.05 987.99,747.20 985.49,748.98
             983.33,750.51 974.95,750.00 972.00,750.00
             972.00,750.00 938.00,750.00 938.00,750.00
             938.00,750.00 774.00,750.00 774.00,750.00
             774.79,747.07 777.31,738.67 779.65,736.99
             781.64,735.57 787.31,736.09 790.00,735.83
             799.33,734.94 809.02,734.60 818.00,731.64
             838.14,725.01 847.13,713.65 855.69,695.00
             866.91,670.56 878.67,626.19 886.42,599.00
             886.42,599.00 929.42,450.00 929.42,450.00
             929.42,450.00 957.71,352.00 957.71,352.00
             964.40,328.72 972.53,304.32 973.91,280.00
             974.11,276.46 973.57,273.38 972.56,270.00
             965.16,245.26 935.61,247.00 915.00,247.00 Z
           M 1528.00,254.23
           C 1531.99,253.91 1535.97,253.96 1540.00,254.23
             1566.33,254.32 1581.90,283.94 1571.65,307.00
             1569.76,311.26 1567.21,314.66 1563.96,317.99
             1554.44,327.74 1547.02,329.15 1534.00,329.00
             1508.70,328.69 1493.19,302.07 1500.75,279.00
             1504.94,266.21 1515.04,257.52 1528.00,254.23 Z
           M 1099.00,426.00
           C 1099.00,426.00 1147.00,418.42 1147.00,418.42
             1147.00,418.42 1230.00,405.00 1230.00,405.00
             1230.00,405.00 1218.42,445.00 1218.42,445.00
             1218.42,445.00 1191.58,536.00 1191.58,536.00
             1191.58,536.00 1180.86,572.00 1180.86,572.00
             1180.86,572.00 1177.00,589.00 1177.00,589.00
             1180.11,580.53 1196.84,555.17 1202.58,546.00
             1223.73,512.20 1259.49,463.25 1289.00,437.28
             1303.31,424.69 1326.18,405.82 1346.00,405.04
             1349.62,404.90 1352.50,405.20 1356.00,406.16
             1380.40,412.85 1375.56,446.81 1368.95,465.00
             1368.95,465.00 1364.24,476.00 1364.24,476.00
             1361.61,481.36 1359.20,486.61 1354.91,490.91
             1343.79,502.03 1323.05,502.25 1315.38,487.00
             1310.80,477.90 1314.04,469.92 1305.98,464.74
             1296.39,458.58 1282.38,470.80 1276.01,477.04
             1259.70,493.03 1235.37,525.65 1221.98,545.00
             1209.27,563.34 1188.18,594.75 1178.26,614.00
             1168.76,632.41 1159.74,657.21 1153.00,677.00
             1153.00,677.00 1145.72,698.00 1145.72,698.00
             1145.72,698.00 1136.87,732.00 1136.87,732.00
             1136.03,735.36 1133.81,747.23 1131.44,748.98
             1129.74,750.23 1126.08,750.00 1124.00,750.00
             1124.00,750.00 1074.00,750.00 1074.00,750.00
             1074.00,750.00 1085.72,711.00 1085.72,711.00
             1085.72,711.00 1107.42,638.00 1107.42,638.00
             1107.42,638.00 1145.00,512.00 1145.00,512.00
             1149.05,497.97 1156.42,472.03 1156.96,458.00
             1157.52,443.36 1144.96,437.06 1132.00,437.00
             1132.00,437.00 1126.00,437.00 1126.00,437.00
             1126.00,437.00 1109.00,439.00 1109.00,439.00
             1106.90,439.27 1103.60,440.11 1101.98,438.36
             1100.57,436.84 1099.45,428.47 1099.00,426.00 Z
           M 1410.00,426.00
           C 1410.00,426.00 1453.00,419.27 1453.00,419.27
             1453.00,419.27 1541.00,405.00 1541.00,405.00
             1541.00,405.00 1533.42,434.00 1533.42,434.00
             1533.42,434.00 1520.42,480.00 1520.42,480.00
             1520.42,480.00 1479.14,626.00 1479.14,626.00
             1479.14,626.00 1462.63,685.00 1462.63,685.00
             1461.01,691.46 1457.04,702.77 1459.27,709.00
             1463.89,721.95 1475.53,718.75 1484.00,712.32
             1495.69,703.46 1506.71,691.51 1515.79,680.00
             1515.79,680.00 1524.89,668.06 1524.89,668.06
             1525.77,667.04 1526.84,665.74 1528.17,665.30
             1531.26,664.26 1539.62,669.87 1539.90,673.09
             1540.13,675.75 1535.99,680.81 1534.42,683.00
             1529.19,690.29 1522.94,698.37 1516.93,705.00
             1495.77,728.32 1463.98,759.76 1430.00,758.99
             1408.59,758.50 1395.76,745.29 1396.00,724.00
             1396.12,713.33 1400.02,698.43 1402.85,688.00
             1402.85,688.00 1416.98,639.00 1416.98,639.00
             1416.98,639.00 1433.42,582.00 1433.42,582.00
             1433.42,582.00 1455.29,507.00 1455.29,507.00
             1458.20,496.90 1466.67,467.04 1466.96,458.00
             1467.26,448.66 1462.21,440.59 1453.00,437.94
             1448.98,436.78 1444.18,436.95 1440.00,437.00
             1440.00,437.00 1410.00,441.00 1410.00,441.00
             1410.00,441.00 1410.00,426.00 1410.00,426.00 Z
           M 2204.00,406.21
           C 2204.00,406.21 2219.00,406.21 2219.00,406.21
             2260.80,406.07 2300.25,429.08 2318.74,467.00
             2329.41,488.89 2331.04,508.18 2331.00,532.00
             2330.96,556.39 2324.01,584.26 2315.42,607.00
             2303.53,638.50 2285.30,667.71 2261.96,692.00
             2249.58,704.89 2231.38,718.37 2216.00,727.60
             2181.06,748.56 2147.05,760.48 2106.00,760.00
             2094.53,759.86 2079.93,757.16 2069.00,753.66
             2060.17,750.82 2049.69,745.51 2042.00,740.33
             1989.14,704.72 1985.44,639.04 2001.43,583.00
             2005.49,568.76 2011.14,555.22 2017.75,542.00
             2046.22,485.06 2092.04,441.06 2152.00,418.42
             2173.41,410.34 2182.12,409.55 2204.00,406.21 Z
           M 2378.00,430.00
           C 2378.00,430.00 2419.00,420.79 2419.00,420.79
             2419.00,420.79 2488.00,406.00 2488.00,406.00
             2498.46,428.49 2505.11,454.82 2510.42,479.00
             2518.95,517.80 2523.38,557.47 2526.09,597.00
             2526.09,597.00 2527.91,618.00 2527.91,618.00
             2527.91,618.00 2529.09,643.00 2529.09,643.00
             2529.09,643.00 2530.00,653.00 2530.00,653.00
             2530.00,653.00 2532.00,691.00 2532.00,691.00
             2532.00,691.00 2553.16,668.00 2553.16,668.00
             2553.16,668.00 2584.55,632.00 2584.55,632.00
             2584.55,632.00 2603.88,606.00 2603.88,606.00
             2603.88,606.00 2637.42,560.00 2637.42,560.00
             2647.88,545.36 2657.72,529.98 2663.95,513.00
             2666.27,506.67 2669.26,496.71 2668.95,490.00
             2668.62,482.50 2664.07,477.99 2659.00,473.01
             2649.72,463.91 2636.81,457.19 2634.33,443.00
             2630.68,422.19 2647.41,405.21 2668.00,406.04
             2686.41,406.78 2700.91,421.72 2705.10,439.00
             2706.43,444.48 2706.01,452.20 2706.00,458.00
             2705.96,486.35 2688.33,519.12 2674.00,543.00
             2648.46,585.57 2603.31,641.99 2569.83,679.00
             2569.83,679.00 2550.83,699.00 2550.83,699.00
             2550.83,699.00 2533.09,717.00 2533.09,717.00
             2533.09,717.00 2506.04,745.00 2506.04,745.00
             2506.04,745.00 2496.99,754.98 2496.99,754.98
             2495.53,756.41 2493.83,758.06 2492.00,758.98
             2489.43,760.26 2480.12,760.89 2478.17,758.43
             2476.96,756.88 2477.03,753.89 2477.00,752.00
             2477.00,752.00 2477.00,741.00 2477.00,741.00
             2477.00,741.00 2476.00,726.00 2476.00,726.00
             2476.00,726.00 2474.00,684.00 2474.00,684.00
             2474.00,684.00 2472.09,659.00 2472.09,659.00
             2472.09,659.00 2468.17,609.00 2468.17,609.00
             2464.87,574.98 2461.55,539.35 2453.88,506.00
             2449.49,486.92 2443.80,456.54 2427.00,444.80
             2412.05,434.35 2396.06,441.65 2380.00,442.00
             2380.00,442.00 2378.00,430.00 2378.00,430.00 Z
           M 2203.00,425.24
           C 2189.47,427.21 2185.19,427.02 2172.00,432.86
             2146.59,444.12 2125.73,469.31 2110.67,492.00
             2102.82,503.82 2096.09,516.32 2089.75,529.00
             2069.91,568.69 2058.94,605.71 2055.91,650.00
             2055.91,650.00 2055.00,662.00 2055.00,662.00
             2055.00,662.00 2055.00,668.00 2055.00,668.00
             2055.15,680.30 2058.27,697.00 2063.81,708.00
             2073.25,726.76 2093.78,740.75 2115.00,741.00
             2124.26,741.10 2128.85,741.41 2138.00,739.11
             2168.23,731.51 2192.63,705.04 2209.33,680.00
             2239.19,635.24 2259.74,586.66 2266.15,533.00
             2266.15,533.00 2268.00,511.00 2268.00,511.00
             2268.00,511.00 2268.00,491.00 2268.00,491.00
             2267.72,467.02 2256.11,442.27 2234.00,431.37
             2225.82,427.34 2216.02,425.82 2207.00,425.24
             2207.00,425.24 2203.00,425.24 2203.00,425.24 Z
           M 1815.00,441.14
           C 1802.46,443.13 1795.62,444.71 1784.00,450.17
             1755.69,463.46 1731.74,487.76 1718.32,516.00
             1708.94,535.74 1703.55,557.06 1697.58,578.00
             1697.58,578.00 1679.71,640.00 1679.71,640.00
             1679.71,640.00 1662.86,698.00 1662.86,698.00
             1662.86,698.00 1658.58,713.00 1658.58,713.00
             1658.07,714.81 1657.01,717.80 1657.67,719.61
             1658.83,722.84 1668.77,726.85 1672.00,728.30
             1684.82,734.09 1702.88,740.83 1717.00,741.00
             1717.00,741.00 1729.00,741.00 1729.00,741.00
             1748.69,740.97 1768.38,732.57 1785.00,722.60
             1794.08,717.15 1801.20,712.18 1809.00,704.91
             1841.17,674.95 1864.30,623.29 1874.87,581.00
             1878.95,564.67 1882.97,539.70 1883.00,523.00
             1883.02,509.08 1882.64,495.31 1877.91,482.00
             1869.76,459.08 1850.09,441.04 1825.00,441.14
             1825.00,441.14 1815.00,441.14 1815.00,441.14 Z
           M 1730.00,470.00
           C 1730.00,470.00 1729.00,470.00 1729.00,470.00
             1729.00,470.00 1730.00,471.00 1730.00,471.00
             1730.00,471.00 1730.00,470.00 1730.00,470.00 Z" />
  <path id="Logo"
        fill="#ee7d00" stroke="none"
        d="M 357.00,373.00
           C 347.76,346.53 335.29,320.78 322.22,296.00
             307.76,268.59 302.01,258.81 295.34,228.00
             293.76,220.73 292.09,214.58 292.00,207.00
             292.00,207.00 292.00,192.00 292.00,192.00
             292.02,178.67 297.10,151.62 301.69,139.00
             310.91,113.72 334.48,84.70 356.00,68.92
             362.67,64.03 369.65,60.43 377.00,56.75
             377.00,56.75 402.00,45.01 402.00,45.01
             404.38,44.04 410.69,41.51 413.00,41.47
             416.06,41.42 420.15,43.87 423.00,45.14
             423.00,45.14 442.00,53.75 442.00,53.75
             449.37,57.43 459.41,62.70 466.00,67.43
             485.62,81.51 510.40,110.42 519.55,133.00
             524.62,145.52 528.25,164.48 530.13,178.00
             530.13,178.00 531.91,199.00 531.91,199.00
             530.84,217.91 526.19,239.21 519.63,257.00
             519.63,257.00 490.26,316.00 490.26,316.00
             490.26,316.00 466.00,372.00 466.00,372.00
             472.49,369.46 481.31,361.08 487.00,356.42
             487.00,356.42 528.00,322.42 528.00,322.42
             558.02,299.04 580.49,289.35 618.00,284.72
             618.00,284.72 643.00,282.00 643.00,282.00
             643.00,282.00 657.00,282.00 657.00,282.00
             670.06,282.02 684.55,285.33 697.00,289.12
             722.95,297.00 742.67,304.76 761.91,325.01
             775.58,339.40 788.15,355.67 793.57,375.00
             795.88,383.21 796.01,390.59 796.00,399.00
             795.95,432.64 780.26,475.71 750.00,493.13
             745.19,495.90 740.34,498.66 735.00,500.28
             731.90,501.22 726.13,502.74 723.00,502.90
             720.52,503.02 718.40,502.69 716.00,502.10
             699.03,497.96 701.84,486.13 700.56,478.00
             699.95,474.15 696.65,462.42 695.10,459.00
             690.77,449.46 681.93,443.15 673.00,438.31
             658.23,430.31 642.46,427.10 626.00,424.73
             626.00,424.73 590.00,421.02 590.00,421.02
             590.00,421.02 581.00,421.91 581.00,421.91
             562.35,423.28 544.90,426.97 527.00,432.28
             527.00,432.28 504.00,438.85 504.00,438.85
             497.90,440.52 494.45,440.39 489.00,444.00
             495.43,445.88 500.59,446.96 505.99,451.38
             509.61,454.34 512.86,458.89 515.10,463.00
             524.95,481.08 522.57,496.28 509.74,512.00
             503.79,519.30 496.29,525.69 488.00,530.21
             471.10,539.41 452.86,545.79 435.00,552.80
             429.85,554.82 412.78,561.10 408.00,560.74
             404.66,560.49 399.27,557.75 396.00,556.45
             396.00,556.45 380.00,550.68 380.00,550.68
             359.25,543.01 332.53,532.85 317.01,517.00
             309.50,509.33 302.27,498.03 302.01,487.00
             301.72,474.40 307.74,459.32 318.00,451.61
             324.24,446.92 330.00,447.00 334.00,443.00
             327.87,442.45 315.32,438.60 309.00,436.72
             309.00,436.72 269.00,426.21 269.00,426.21
             259.36,424.17 249.77,423.58 240.00,422.91
             240.00,422.91 232.00,422.08 232.00,422.08
             232.00,422.08 224.00,422.91 224.00,422.91
             205.84,424.15 183.22,426.39 166.00,432.34
             152.47,437.02 136.07,445.03 128.90,458.00
             126.34,462.64 123.20,474.62 122.32,480.00
             121.70,483.83 122.39,487.15 121.20,491.00
             118.56,499.53 111.27,502.82 103.00,503.70
             99.91,504.03 96.02,503.39 93.00,502.66
             49.75,492.18 27.06,441.03 27.00,400.00
             26.98,387.01 27.45,379.35 32.45,367.00
             41.17,345.47 65.29,318.47 85.00,306.46
             94.00,300.98 106.96,296.19 117.00,292.69
             138.12,285.33 154.79,282.97 177.00,283.00
             177.00,283.00 198.00,284.83 198.00,284.83
             231.51,288.18 253.85,294.38 282.00,313.88
             282.00,313.88 334.00,355.61 334.00,355.61
             339.93,360.43 350.56,370.25 357.00,373.00 Z
           M 411.00,66.43
           C 398.05,70.04 371.90,84.81 362.00,94.02
             350.75,104.50 340.21,115.87 332.06,129.00
             321.94,145.30 318.10,162.17 315.85,181.00
             315.85,181.00 314.09,200.00 314.09,200.00
             314.70,210.80 318.62,231.87 322.08,242.00
             329.77,264.52 349.39,296.74 359.97,320.00
             366.36,334.05 381.92,371.04 384.53,385.00
             386.59,395.99 382.23,408.10 369.00,406.80
             361.18,406.03 352.23,399.19 346.00,394.71
             346.00,394.71 303.00,359.75 303.00,359.75
             285.09,344.75 269.19,330.96 248.00,320.37
             230.91,311.82 200.10,306.03 181.00,306.00
             181.00,306.00 164.00,306.00 164.00,306.00
             150.79,306.02 138.44,310.02 126.00,313.97
             116.61,316.96 106.45,320.32 98.00,325.46
             87.36,331.94 75.97,343.30 68.20,353.00
             57.39,366.49 50.03,377.18 50.00,395.00
             50.00,395.00 50.00,402.00 50.00,402.00
             50.10,422.75 61.00,455.13 77.00,468.68
             80.44,471.59 92.42,479.99 96.85,479.48
             99.40,479.18 99.77,477.08 100.23,474.98
             100.23,474.98 103.75,459.00 103.75,459.00
             109.12,442.23 117.84,431.51 133.00,422.45
             151.86,411.19 165.97,408.18 187.00,404.39
             213.92,399.54 236.79,398.07 264.00,402.27
             264.00,402.27 316.00,415.12 316.00,415.12
             316.00,415.12 351.00,424.63 351.00,424.63
             359.72,426.81 368.70,428.69 374.73,436.02
             383.75,446.99 374.14,458.05 364.00,463.37
             358.67,466.16 352.03,468.38 346.00,468.78
             341.31,469.16 338.41,467.51 335.01,468.78
             332.08,469.83 330.05,472.43 328.48,475.00
             322.67,484.50 324.98,490.78 331.52,499.00
             334.48,502.72 338.07,505.60 342.00,508.25
             348.24,512.46 355.18,515.57 362.00,518.69
             362.00,518.69 394.00,531.42 394.00,531.42
             398.04,532.95 405.99,536.63 410.00,536.63
             413.83,536.64 424.74,532.15 429.00,530.66
             441.25,526.37 467.64,515.90 478.00,509.31
             489.89,501.75 503.16,490.16 495.18,475.00
             493.75,472.29 491.82,469.58 488.98,468.05
             485.27,466.37 482.71,468.26 477.00,468.05
             465.04,467.17 445.87,458.64 445.11,445.00
             444.92,441.63 445.54,438.79 447.51,436.00
             448.90,434.05 451.05,432.03 453.00,430.64
             458.58,426.63 465.52,425.60 472.00,423.85
             472.00,423.85 505.00,414.85 505.00,414.85
             525.52,409.23 545.78,402.86 567.00,400.28
             593.11,397.11 615.38,399.59 641.00,404.39
             641.00,404.39 661.00,408.72 661.00,408.72
             676.97,413.48 698.14,423.91 708.62,437.00
             712.52,441.86 715.12,447.26 717.40,453.00
             719.53,458.38 720.91,463.30 721.92,469.00
             722.26,470.94 722.82,476.02 724.01,477.52
             725.61,479.23 728.08,478.39 730.00,477.52
             743.21,472.54 751.99,462.95 758.99,451.00
             770.05,432.11 777.51,399.30 770.78,378.00
             769.28,373.24 765.79,367.14 762.97,363.00
             754.33,350.33 740.82,334.95 728.00,326.54
             718.57,320.36 708.61,316.87 698.00,313.33
             685.50,309.17 671.22,305.02 658.00,305.00
             658.00,305.00 641.00,305.00 641.00,305.00
             641.00,305.00 631.00,305.92 631.00,305.92
             606.73,307.86 586.32,312.71 565.00,324.87
             544.37,336.64 527.04,353.37 509.00,368.56
             509.00,368.56 478.00,393.13 478.00,393.13
             469.54,399.47 456.06,410.38 445.02,403.91
             442.01,402.16 439.69,399.33 438.65,396.00
             438.00,393.94 437.95,391.16 438.04,389.00
             438.40,380.05 446.54,359.14 449.95,350.00
             460.09,322.81 474.34,296.89 487.37,271.00
             487.37,271.00 495.14,256.00 495.14,256.00
             501.59,241.40 509.57,211.82 508.96,196.00
             508.46,183.02 504.32,156.86 499.55,145.00
             489.49,120.02 465.63,92.62 442.00,79.77
             434.96,75.94 418.46,66.14 411.00,66.43 Z" />
</svg>
